<?xml version="1.0" encoding="utf-8"?>
<!-- Generator: Adobe Illustrator 23.0.0, SVG Export Plug-In . SVG Version: 6.00 Build 0)  -->
<svg version="1.1" id="Layer_1" xmlns="http://www.w3.org/2000/svg" xmlns:xlink="http://www.w3.org/1999/xlink" x="0px" y="0px"
	 viewBox="0 0 168 50.6" style="enable-background:new 0 0 168 50.6;" xml:space="preserve">
<style type="text/css">
	.st0{fill:#151446;}
	.st1{font-family:'Bauhaus93';}
	.st2{font-size:33px;}
	.st3{fill:#FFFFFF;}
	.st4{fill:#53C1DE;}
</style>
<g id="Group_1" transform="translate(-499 -101.188)">
	<text transform="matrix(1 0 0 1 558 138)" class="st0 st1 st2">arman</text>
	<g id="react" transform="translate(498.246 100.404)">
		<path id="Path_1" class="st3" d="M0.8,26c0,4.2,4.1,8.2,10.7,10.4c-1.3,6.6-0.2,11.9,3.3,13.9c3.7,2.1,9.2,0.7,14.4-3.9
			c5.1,4.4,10.2,6.1,13.8,4c3.7-2.1,4.8-7.8,3.5-14.6C53.2,33.7,57,30.3,57,26c0-4.1-4.2-7.7-10.6-10C47.8,9,46.6,3.8,42.9,1.6
			C39.3-0.4,34.1,1.4,29,5.9c-5.4-4.8-10.5-6.2-14.2-4.1c-3.6,2.1-4.6,7.5-3.3,14.2C5.1,18.2,0.8,21.8,0.8,26z"/>
		<path id="Path_2" class="st4" d="M45,18.2c-0.5-0.2-1.1-0.4-1.6-0.5c0.1-0.4,0.2-0.7,0.2-1.1c1.2-5.9,0.4-10.7-2.3-12.2
			c-2.6-1.5-6.9,0.1-11.2,3.8c-0.4,0.4-0.8,0.8-1.2,1.1c-0.3-0.3-0.5-0.5-0.8-0.8c-4.5-4-9-5.7-11.7-4.1C13.8,6,13,10.4,14.1,16
			c0.1,0.6,0.2,1.1,0.4,1.7c-0.6,0.2-1.3,0.4-1.8,0.6C7.3,20.1,4,23,4,26c0,3.1,3.6,6.2,9.1,8.1c0.4,0.2,0.9,0.3,1.4,0.4
			c-0.1,0.6-0.3,1.2-0.4,1.8c-1,5.5-0.2,9.9,2.4,11.4c2.7,1.5,7.2,0,11.6-3.9c0.3-0.3,0.7-0.6,1-1c0.4,0.4,0.9,0.8,1.3,1.2
			c4.2,3.7,8.4,5.1,11,3.6c2.7-1.6,3.5-6.2,2.4-12c-0.1-0.4-0.2-0.9-0.3-1.3c0.3-0.1,0.6-0.2,0.9-0.3c5.7-1.9,9.5-5,9.5-8.1
			C53.9,23,50.4,20.1,45,18.2z"/>
		<path id="Path_3" class="st3" d="M43.8,32.1c-0.3,0.1-0.6,0.2-0.8,0.3c-0.7-2.2-1.5-4.3-2.5-6.3c0.9-2,1.8-4.1,2.4-6.2
			c0.5,0.1,1,0.3,1.5,0.5c4.6,1.6,7.4,3.9,7.4,5.8C51.8,27.9,48.7,30.4,43.8,32.1L43.8,32.1z M41.7,36.1c0.5,2.2,0.6,4.4,0.2,6.6
			c-0.1,1.2-0.7,2.3-1.6,3.1c-1.6,0.9-4.9-0.3-8.6-3.4c-0.4-0.4-0.8-0.7-1.3-1.1c1.5-1.7,2.9-3.4,4.2-5.3c2.3-0.2,4.5-0.5,6.8-1
			C41.6,35.3,41.7,35.7,41.7,36.1L41.7,36.1z M21,45.7c-1.1,0.5-2.4,0.6-3.5,0.1c-1.6-0.9-2.2-4.4-1.3-9.1c0.1-0.6,0.2-1.1,0.4-1.7
			c2.2,0.5,4.5,0.8,6.7,1c1.3,1.9,2.7,3.6,4.3,5.3c-0.3,0.3-0.6,0.6-1,0.9C24.9,43.7,23,44.9,21,45.7L21,45.7z M13.8,32.1
			C11.7,31.4,9.7,30.3,8,29c-1-0.7-1.7-1.8-1.9-3c0-1.8,2.7-4.1,7.2-5.7c0.6-0.2,1.1-0.4,1.7-0.5c0.7,2.2,1.5,4.3,2.4,6.3
			c-1,2.1-1.8,4.2-2.5,6.4C14.6,32.3,14.2,32.2,13.8,32.1L13.8,32.1z M16.2,15.6c-0.9-4.8-0.3-8.4,1.3-9.3c1.7-1,5.4,0.4,9.3,3.9
			c0.2,0.2,0.5,0.5,0.7,0.7c-1.5,1.7-3,3.4-4.3,5.3c-2.2,0.2-4.5,0.5-6.7,1C16.4,16.6,16.3,16.1,16.2,15.6L16.2,15.6z M37.7,20.9
			c-0.5-0.8-1-1.7-1.5-2.5c1.6,0.2,3.1,0.5,4.6,0.8c-0.5,1.5-1,2.9-1.6,4.3C38.7,22.7,38.2,21.8,37.7,20.9L37.7,20.9z M29,12.4
			c1,1.1,2,2.3,2.9,3.5c-2-0.1-3.9-0.1-5.9,0C27,14.7,28,13.5,29,12.4z M20.1,21c-0.5,0.9-1,1.7-1.4,2.6c-0.6-1.5-1.2-2.9-1.6-4.3
			c1.4-0.3,2.9-0.6,4.5-0.8C21.1,19.3,20.6,20.1,20.1,21L20.1,21z M21.7,33.7c-1.5-0.2-3.1-0.4-4.6-0.7c0.4-1.4,1-2.9,1.6-4.4
			c0.5,0.9,0.9,1.7,1.4,2.6C20.6,32,21.1,32.9,21.7,33.7L21.7,33.7z M29,39.8c-1-1.1-2-2.3-3-3.6c1,0,1.9,0.1,2.9,0.1c1,0,2,0,3-0.1
			C31,37.4,30.1,38.6,29,39.8L29,39.8z M39.2,28.5c0.6,1.4,1.2,2.9,1.7,4.4c-1.5,0.3-3.1,0.6-4.7,0.8c0.5-0.8,1-1.7,1.5-2.5
			C38.2,30.3,38.7,29.4,39.2,28.5L39.2,28.5z M35.9,30.1c-0.8,1.3-1.6,2.6-2.4,3.9c-1.5,0.1-3,0.2-4.6,0.2s-3.1,0-4.5-0.1
			c-0.9-1.3-1.7-2.5-2.4-3.9s-1.5-2.7-2.1-4c0.7-1.4,1.4-2.7,2.1-4l0,0c0.8-1.3,1.6-2.6,2.4-3.9c1.5-0.1,3-0.2,4.5-0.2
			s3.1,0.1,4.6,0.2c0.8,1.3,1.6,2.5,2.4,3.8c0.8,1.3,1.5,2.6,2.2,4C37.4,27.4,36.7,28.7,35.9,30.1L35.9,30.1z M40.3,6.2
			c1.7,1,2.3,4.9,1.3,10c-0.1,0.3-0.1,0.7-0.2,1c-2.2-0.5-4.4-0.9-6.7-1.1c-1.3-1.8-2.7-3.6-4.2-5.3c0.4-0.4,0.8-0.7,1.2-1.1
			C35.3,6.6,38.7,5.3,40.3,6.2z"/>
		<path id="Path_4" class="st4" d="M28.9,21.5c2.5,0,4.5,2,4.5,4.5s-2,4.5-4.5,4.5s-4.5-2-4.5-4.5l0,0
			C24.5,23.5,26.5,21.5,28.9,21.5"/>
	</g>
</g>
</svg>
